<svg width="96" height="96" xmlns="http://www.w3.org/2000/svg" xmlns:xlink="http://www.w3.org/1999/xlink" overflow="hidden"><defs><clipPath id="clip0"><rect x="0" y="0" width="96" height="96"/></clipPath></defs><g clip-path="url(#clip0)"><path d="M18 88 78 88 78 8 18 8ZM20 10 76 10 76 86 20 86Z"/><path d="M28 23 68 23 68 25 28 25Z"/><path d="M28 31 68 31 68 33 28 33Z"/><path d="M28 39 68 39 68 41 28 41Z"/><path d="M28 47 48 47 48 49 28 49Z"/><path d="M48 67 68 67 68 69 48 69Z"/><path d="M39.793 61.293 34.75 66.336 29.707 61.293 28.293 62.707 33.336 67.75 28.293 72.793 29.707 74.207 34.75 69.164 39.793 74.207 41.207 72.793 36.164 67.75 41.207 62.707 39.793 61.293Z"/></g></svg>