<svg width="96" height="96" xmlns="http://www.w3.org/2000/svg" xmlns:xlink="http://www.w3.org/1999/xlink" overflow="hidden"><defs><clipPath id="clip0"><rect x="0" y="0" width="96" height="96"/></clipPath></defs><g clip-path="url(#clip0)"><path d="M11 63 11 86 34 86 34 63ZM18 70 14 70 14 66 18 66Z"/><path d="M37 63 37 86 60 86 60 63ZM44 70 40 70 40 66 44 66Z"/><path d="M24 37 24 60 47 60 47 37ZM31 44 27 44 27 40 31 40Z"/><path d="M50 37 50 60 73 60 73 37ZM57 44 53 44 53 40 57 40Z"/><path d="M37 11 37 34 60 34 60 11ZM44 18 40 18 40 14 44 14Z"/><path d="M63 63 63 86 85 86 85 63ZM70 70 66 70 66 66 70 66Z"/></g></svg>